<svg width="22" height="22" viewBox="0 0 22 22" fill="none" xmlns="http://www.w3.org/2000/svg">
<path d="M10.0834 6.41671H11.9167V8.25004H10.0834V6.41671ZM10.0834 10.0834H11.9167V15.5834H10.0834V10.0834ZM11 1.83337C5.94004 1.83337 1.83337 5.94004 1.83337 11C1.83337 16.06 5.94004 20.1667 11 20.1667C16.06 20.1667 20.1667 16.06 20.1667 11C20.1667 5.94004 16.06 1.83337 11 1.83337ZM11 18.3334C6.95754 18.3334 3.66671 15.0425 3.66671 11C3.66671 6.95754 6.95754 3.66671 11 3.66671C15.0425 3.66671 18.3334 6.95754 18.3334 11C18.3334 15.0425 15.0425 18.3334 11 18.3334Z" fill="#0288D1"/>
</svg>
